<?xml version="1.0" encoding="utf-8"?>
<!-- Generator: Adobe Illustrator 24.0.1, SVG Export Plug-In . SVG Version: 6.00 Build 0)  -->
<svg version="1.1" id="Layer_1" xmlns:svgjs="http://svgjs.com/svgjs"
	 xmlns="http://www.w3.org/2000/svg" xmlns:xlink="http://www.w3.org/1999/xlink" x="0px" y="0px" viewBox="0 0 512 512"
	 style="enable-background:new 0 0 512 512;" xml:space="preserve">
<style type="text/css">
	.st0{fill:#FFFFFF;}
	.st1{fill:#FFDE00;}
</style>
<rect x="94" y="160" class="st0" width="321" height="203.4"/>
<g>
	<path class="st1" d="M470.6,132.1l-62.8-27.9l-27.9-62.8l-68.3,7.1L256,8.3l-55.6,40.3l-68.3-7.1l-27.9,62.8l-62.8,27.9l7.1,68.3
		L8.3,256l40.3,55.6l-7.1,68.3l62.8,27.9l27.9,62.8l68.3-7.1l55.6,40.3l55.6-40.3l68.3,7.1l27.9-62.8l62.8-27.9l-7.1-68.3l40.3-55.6
		l-40.3-55.6L470.6,132.1z M206.5,355.1L136.4,285l23.4-23.3l46.7,46.7l140.1-140.1l23.4,23.4L206.5,355.1z"/>
	<g>
		<path class="st1" d="M510.4,251.1l-38.5-53l6.8-65.1c0.4-3.6-1.6-7-4.9-8.4l-59.8-26.6l-26.6-59.9c-1.5-3.3-4.9-5.2-8.4-4.9
			L313.9,40l-53-38.4c-2.9-2.1-6.8-2.1-9.7,0l-53,38.4L133,33.2c-3.6-0.3-6.9,1.6-8.4,4.9L97.9,97.9l-59.9,26.6
			c-3.3,1.5-5.2,4.8-4.9,8.4l6.8,65.2l-38.4,53c-2.1,2.9-2.1,6.8,0,9.7l38.4,53L33.2,379c-0.4,3.6,1.6,7,4.9,8.4l59.9,26.6
			l26.6,59.9c1.5,3.2,4.9,5.2,8.4,4.9l65.2-6.8l53,38.5c2.9,2.1,6.8,2.1,9.7,0l53-38.5l65.2,6.8c3.6,0.4,6.9-1.6,8.4-4.9l26.6-59.9
			l59.8-26.6c3.3-1.5,5.2-4.8,4.9-8.4l-6.8-65.2l38.5-53C512.5,258,512.5,254,510.4,251.1z M456.8,306.7c-1.2,1.6-1.7,3.7-1.5,5.7
			l6.5,62.3l-57.3,25.5c-1.9,0.8-3.4,2.3-4.2,4.2l-25.5,57.3l-62.3-6.5c-2-0.2-4.1,0.3-5.7,1.5L256,493.5l-50.8-36.8
			c-1.4-1-3.1-1.6-4.8-1.6c-0.3,0-0.6,0-0.8,0l-62.3,6.5l-25.5-57.3c-0.8-1.9-2.3-3.4-4.2-4.2l-57.3-25.5l6.5-62.3
			c0.2-2-0.3-4.1-1.5-5.7L18.5,256l36.8-50.8c1.2-1.6,1.7-3.7,1.5-5.7l-6.5-62.3l57.3-25.5c1.9-0.8,3.4-2.3,4.2-4.2l25.5-57.3
			l62.3,6.5c2,0.2,4-0.3,5.7-1.5L256,18.5l50.8,36.8c1.6,1.2,3.7,1.7,5.7,1.5l62.3-6.5l25.5,57.3c0.8,1.9,2.3,3.4,4.2,4.2l57.3,25.5
			l-6.5,62.3c-0.2,2,0.3,4.1,1.5,5.7l36.8,50.8L456.8,306.7z"/>
		<path class="st1" d="M352.4,162.4c-3.2-3.2-8.5-3.2-11.7,0L206.5,296.7l-40.9-40.8c-3.2-3.2-8.4-3.2-11.7,0l-23.4,23.3
			c-1.6,1.5-2.4,3.7-2.4,5.8s0.9,4.3,2.4,5.8l70.1,70.1c3.2,3.2,8.5,3.2,11.7,0l163.5-163.5c3.2-3.2,3.2-8.5,0-11.7L352.4,162.4z
			 M206.5,343.4L148,285l11.7-11.6l40.9,40.8c3.2,3.2,8.4,3.2,11.7,0l134.3-134.3l11.7,11.7L206.5,343.4z"/>
	</g>
</g>
</svg>
