<svg id="Layer_1" data-name="Layer 1" xmlns="http://www.w3.org/2000/svg" xmlns:xlink="http://www.w3.org/1999/xlink" viewBox="0 0 1498.2 1054.9"><defs><style>.cls-1{fill:url(#linear-gradient);}.cls-2{fill:url(#linear-gradient-2);}.cls-3{fill:url(#linear-gradient-3);}.cls-4{fill:#6883de;}</style><linearGradient id="linear-gradient" x1="304.51" y1="1031.18" x2="304.51" y2="1055.24" gradientUnits="userSpaceOnUse"><stop offset="0" stop-color="#ff636e"/><stop offset="1" stop-color="#f98d6c"/></linearGradient><linearGradient id="linear-gradient-2" x1="1186.16" y1="71.69" x2="1186.16" y2="95.75" xlink:href="#linear-gradient"/><linearGradient id="linear-gradient-3" x1="1768.03" y1="1058.11" x2="1768.03" y2="1082.17" xlink:href="#linear-gradient"/></defs><title>stars</title><path class="cls-1" d="M287.17,1045.28a17.34,17.34,0,1,1,17.34,17.34A17.36,17.36,0,0,1,287.17,1045.28Zm7.75,0a9.59,9.59,0,1,0,9.59-9.59A9.6,9.6,0,0,0,294.92,1045.28Z" transform="translate(-287.17 -68.45)"/><path class="cls-2" d="M1168.82,85.79a17.34,17.34,0,1,1,17.34,17.34A17.35,17.35,0,0,1,1168.82,85.79Zm7.75,0a9.59,9.59,0,1,0,9.59-9.59A9.6,9.6,0,0,0,1176.57,85.79Z" transform="translate(-287.17 -68.45)"/><path class="cls-3" d="M1750.69,1072.21a17.34,17.34,0,1,1,17.34,17.34A17.36,17.36,0,0,1,1750.69,1072.21Zm7.75,0a9.59,9.59,0,1,0,9.59-9.59A9.6,9.6,0,0,0,1758.44,1072.21Z" transform="translate(-287.17 -68.45)"/><path class="cls-4" d="M1069.3,215.42V186.14a2.25,2.25,0,1,0-4.49,0v29.28a2.25,2.25,0,0,0,4.49,0Z" transform="translate(-287.17 -68.45)"/><path class="cls-4" d="M1081.69,198.53h-29.28a2.25,2.25,0,0,0,0,4.49h29.28a2.25,2.25,0,1,0,0-4.49Z" transform="translate(-287.17 -68.45)"/><path class="cls-4" d="M567.25,155.29V132.38a1.76,1.76,0,1,0-3.51,0v22.91a1.76,1.76,0,1,0,3.51,0Z" transform="translate(-287.17 -68.45)"/><path class="cls-4" d="M577,142.08H554a1.76,1.76,0,1,0,0,3.51H577a1.76,1.76,0,1,0,0-3.51Z" transform="translate(-287.17 -68.45)"/><path class="cls-4" d="M675.42,1121.59v-22.92a1.76,1.76,0,0,0-3.51,0v22.92a1.76,1.76,0,0,0,3.51,0Z" transform="translate(-287.17 -68.45)"/><path class="cls-4" d="M685.12,1108.37H662.21a1.76,1.76,0,1,0,0,3.52h22.91a1.76,1.76,0,1,0,0-3.52Z" transform="translate(-287.17 -68.45)"/></svg>